<svg width="50" height="50" viewBox="0 0 50 50" fill="none" xmlns="http://www.w3.org/2000/svg">
  <!-- Outer hexagon -->
  <path d="M25 6L37.5 13V27L25 34L12.5 27V13L25 6Z" fill="url(#gradient1)" stroke="#10B981" stroke-width="1.5"/>
  
  <!-- Inner geometric pattern -->
  <path d="M25 12L31 16V24L25 28L19 24V16L25 12Z" fill="#10B981" fill-opacity="0.2" stroke="#10B981" stroke-width="1"/>
  
  <!-- Center dot -->
  <circle cx="25" cy="20" r="2.5" fill="#10B981"/>
  
  <!-- AI neural network nodes -->
  <circle cx="21" cy="16" r="1.2" fill="#10B981" fill-opacity="0.6"/>
  <circle cx="29" cy="16" r="1.2" fill="#10B981" fill-opacity="0.6"/>
  <circle cx="21" cy="24" r="1.2" fill="#10B981" fill-opacity="0.6"/>
  <circle cx="29" cy="24" r="1.2" fill="#10B981" fill-opacity="0.6"/>
  
  <!-- Connecting lines -->
  <line x1="21" y1="16" x2="25" y2="20" stroke="#10B981" stroke-width="0.5" stroke-opacity="0.4"/>
  <line x1="29" y1="16" x2="25" y2="20" stroke="#10B981" stroke-width="0.5" stroke-opacity="0.4"/>
  <line x1="21" y1="24" x2="25" y2="20" stroke="#10B981" stroke-width="0.5" stroke-opacity="0.4"/>
  <line x1="29" y1="24" x2="25" y2="20" stroke="#10B981" stroke-width="0.5" stroke-opacity="0.4"/>
  
  <defs>
    <linearGradient id="gradient1" x1="25" y1="6" x2="25" y2="34" gradientUnits="userSpaceOnUse">
      <stop stop-color="#10B981" stop-opacity="0.1"/>
      <stop offset="1" stop-color="#10B981" stop-opacity="0.05"/>
    </linearGradient>
  </defs>
</svg>
